<svg width="72" height="72" viewBox="0 0 72 72" fill="none" xmlns="http://www.w3.org/2000/svg">
<path d="M22.5478 28.623C14.7881 33.9476 5.22949 57.627 29.5501 66H45.5552C62.6924 64.9765 61.4329 21.0706 46.0554 14.3607C49.023 20.8983 49.953 31.9977 44.3085 39.5998C44.2292 39.7195 44.1446 39.8311 44.0548 39.9344C44.1405 39.8238 44.2251 39.7122 44.3085 39.5998C48.8644 32.0991 40.7025 12.8894 23.5482 6C26.049 10.918 32.6921 32.1977 26.049 45.3443C20.1569 43.1585 21.7045 32.9177 22.5478 28.623Z" fill="#B90C0C"/>
<path d="M41.554 59.1148C41.554 61.2877 39.7625 63.0492 37.5527 63.0492C35.3428 63.0492 33.5514 61.2877 33.5514 59.1148C33.5514 56.9418 35.3428 55.1803 37.5527 55.1803C39.7625 55.1803 41.554 56.9418 41.554 59.1148Z" fill="white"/>
<path d="M34.7233 59.1148L37.5527 56.3327L40.382 59.1148L37.5527 61.8968L34.7233 59.1148Z" fill="#B90C0C"/>
</svg>
