<svg width="73" height="72" viewBox="0 0 73 72" fill="none" xmlns="http://www.w3.org/2000/svg">
<path d="M33.8438 33.1285C34.598 33.4318 35.3167 33.7715 35.9996 34.1471C37.4215 34.9291 38.6894 35.8678 39.8022 36.9635C41.3829 38.5198 42.2863 40.7638 43.8669 42.3201C48.4043 46.7879 52.9414 51.2559 57.4787 55.7236C59.8686 58.0768 62.7659 59.9154 65.2923 62.13C65.6854 62.4745 66.0695 62.8286 66.4414 63.1947C66.604 63.3548 66.4283 63.8587 65.9135 64.7061C65.6878 64.9352 65.4615 65.1639 65.2358 65.393C64.3959 65.9202 63.8949 66.1042 63.7322 65.9442C63.3604 65.578 63.0007 65.1993 62.6501 64.8116C60.3968 62.3198 58.514 59.4516 56.1241 57.0984C51.5868 52.6306 47.0497 48.1626 42.5124 43.6949C40.9317 42.1385 38.6728 41.2693 37.0921 39.7129C35.9795 38.6173 35.0216 37.3645 34.218 35.9553C33.8321 35.2784 33.4816 34.5655 33.167 33.8164C33.3927 33.5873 33.618 33.3576 33.8438 33.1285Z" fill="#1958B7"/>
<path d="M37.3345 21.9898C37.3345 30.1811 30.6913 36.8215 22.4965 36.8215C14.3017 36.8215 7.65851 30.1811 7.65851 21.9898C7.65851 13.7984 14.3017 7.15802 22.4965 7.15802C30.6913 7.15802 37.3345 13.7984 37.3345 21.9898Z" fill="#E5E5E5"/>
<path d="M37.3345 21.9898C37.3345 13.9264 30.8973 7.36573 22.8794 7.16273L22.4965 7.15802C14.3017 7.15802 7.65851 13.7984 7.65851 21.9898L7.66322 22.3725C7.86308 30.2599 14.2232 36.6176 22.114 36.8172L22.4965 36.8215C30.5633 36.8215 37.1271 30.3869 37.3302 22.3725L37.3345 21.9898ZM38.4924 21.9899C38.4924 30.8206 31.3311 37.9789 22.4967 37.979C13.6622 37.979 6.50009 30.8207 6.5 21.9899C6.5 13.1591 13.6622 6 22.4967 6C31.3312 6.00009 38.4924 13.1592 38.4924 21.9899Z" fill="#1958B7"/>
<path d="M36.3772 21.9898C36.3772 29.6527 30.1626 35.8647 22.4965 35.8647C14.8304 35.8647 8.6158 29.6527 8.6158 21.9898C8.6158 14.3269 14.8304 8.11491 22.4965 8.11491C30.1626 8.11491 36.3772 14.3269 36.3772 21.9898Z" fill="#1958B7" fill-opacity="0.5"/>
<path d="M25.9986 21.631C25.9986 23.7625 24.27 25.4904 22.1375 25.4904C20.0051 25.4904 18.2765 23.7625 18.2765 21.631C18.2765 19.4994 20.0051 17.7715 22.1375 17.7715C24.27 17.7715 25.9986 19.4994 25.9986 21.631Z" fill="white"/>
<path d="M19.4073 21.631L22.1375 18.9019L24.8677 21.631L22.1375 24.36L19.4073 21.631Z" fill="#1958B7"/>
</svg>
