<svg width="73" height="72" viewBox="0 0 73 72" fill="none" xmlns="http://www.w3.org/2000/svg">
<path d="M36.5 15.0456L41.2195 32.3371L58.3182 31.7133L44.1364 41.7763L49.9844 58.6822L36.5 47.6099L23.0156 58.6822L28.8636 41.7763L14.6818 31.7133L31.7805 32.3371L36.5 15.0456Z" fill="#BEAA10"/>
<path d="M42.9895 29.7762L66.5 28.9184L46.9997 42.7548L55.0407 66L36.5 50.7757L17.9593 66L26.0003 42.7548L6.5 28.9184L30.0105 29.7762L36.5 6L42.9895 29.7762ZM30.7237 30.8078L9.79516 30.0432L27.1531 42.3602L19.9952 63.0515L36.5 49.5007L53.0038 63.0515L45.8469 42.3602L63.2039 30.0432L42.2763 30.8078L36.5 9.64142L30.7237 30.8078Z" fill="#BEAA10"/>
<path d="M40.3235 39.1673C40.3235 41.3877 38.6117 43.1876 36.5 43.1876C34.3883 43.1876 32.6765 41.3877 32.6765 39.1673C32.6765 36.947 34.3883 35.1471 36.5 35.1471C38.6117 35.1471 40.3235 36.947 40.3235 39.1673Z" fill="white"/>
<path d="M33.7964 39.1673L36.5 36.3246L39.2036 39.1673L36.5 42.0101L33.7964 39.1673Z" fill="#BEAA10"/>
</svg>
